<svg data-v-d3f97b9e="" xmlns="http://www.w3.org/2000/svg" viewBox="0 0 707 90"><!----><!----><!----><g data-v-d3f97b9e="" id="49cc8d43-ff2b-4d67-9c43-3157a14735a1" fill="#000000" transform="matrix(5.660377664046611,0,0,5.660377664046611,112.29703239148466,2.660376552925996)"><path d="M0.24 11.97L0.25 12.42L2.98 12.42L3.01 11.97L2.83 11.97C1.99 11.97 1.99 11.93 1.99 11.49L1.99 8.12C1.99 8.12 2.83 7.67 3.50 7.67C4.13 7.67 4.41 7.94 4.41 8.74L4.41 11.55C4.41 11.94 4.33 11.97 3.93 11.97L3.61 11.97L3.63 12.42L6.23 12.42L6.24 11.97C5.59 11.97 5.39 11.97 5.39 11.55L5.39 9.14C5.39 8.04 5.38 6.89 4.06 6.89C2.94 6.89 2.17 7.69 1.95 7.78C1.95 7.27 1.96 7.13 1.99 6.79L0.27 7.14L0.27 7.57C0.64 7.49 0.69 7.46 0.80 7.46C0.99 7.46 1.01 7.59 1.01 8.16L1.01 11.49C1.01 11.94 1.01 11.97 0.38 11.97ZM6.68 9.86C6.68 10.93 7.27 12.60 9.24 12.60C10.75 12.60 11.79 11.42 11.79 11.16C11.79 11.03 11.73 10.99 11.66 10.99C11.42 10.99 10.91 11.65 9.80 11.65C8.62 11.65 7.73 10.86 7.73 9.45C7.73 9.38 7.74 9.30 7.74 9.25L11.26 8.83C11.31 8.83 11.48 8.78 11.48 8.62C11.48 8.13 10.68 6.83 9.16 6.83C7.77 6.83 6.68 8.04 6.68 9.86ZM7.77 8.76C7.92 7.84 8.46 7.31 9.02 7.31C9.79 7.31 10.18 8.46 10.18 8.46ZM11.80 7.38C12.68 7.38 12.63 7.38 12.95 8.13L14.90 12.66L15.19 12.67L17.08 8.47L18.77 12.64L19.08 12.66L21.41 7.84C21.63 7.38 21.95 7.38 22.37 7.38L22.36 6.93L19.88 6.93L19.88 7.38L20.24 7.38C20.71 7.38 20.86 7.42 20.86 7.57C20.86 7.66 20.82 7.77 20.75 7.92L19.25 11.09L17.95 7.99C17.88 7.81 17.82 7.67 17.82 7.59C17.82 7.39 18.02 7.38 18.56 7.38L18.56 6.93L15.54 6.93L15.57 7.38L16.09 7.38C16.46 7.38 16.63 7.43 16.81 7.87L15.33 11.10L14.03 8.06C13.96 7.90 13.89 7.74 13.89 7.62C13.89 7.41 14.08 7.38 14.31 7.38L14.73 7.38L14.74 6.93L11.80 6.93ZM22.43 2.69L22.47 3.12C23.10 2.98 23.18 2.97 23.27 2.97C23.39 2.97 23.46 3.08 23.46 3.39L23.46 10.25C23.46 11.37 23.42 11.93 23.42 12.12C23.42 12.38 23.51 12.45 23.58 12.45C23.79 12.45 24.01 12.12 24.22 12.12C24.43 12.12 25.13 12.54 26.10 12.54C27.96 12.54 28.98 10.96 28.98 9.45C28.98 8.11 28.17 6.83 26.42 6.83C25.37 6.83 24.65 7.56 24.44 7.71L24.44 2.30C23.74 2.44 23.09 2.58 22.43 2.69ZM24.44 11.05L24.44 8.11C24.44 8.11 25.02 7.59 26.05 7.59C26.42 7.59 27.97 7.76 27.97 9.95C27.97 11.73 26.71 12.04 25.94 12.04C25.26 12.04 24.44 11.72 24.44 11.05ZM29.71 11.51C29.71 12.26 30.41 12.57 31.00 12.57C31.61 12.57 32.27 12.17 32.63 11.68C32.93 12.04 33.08 12.31 33.57 12.66C33.61 12.64 34.09 12.36 34.41 12.15C34.51 12.10 34.54 12.04 34.54 12.00C34.54 11.96 34.51 11.91 34.41 11.89C33.60 11.66 33.50 11.21 33.50 10.61L33.50 7.99C33.50 6.97 32.59 6.87 32.27 6.87C30.25 6.87 29.82 8.13 29.82 8.44C29.82 8.61 29.86 8.95 30.14 8.95C30.25 8.95 30.59 8.81 30.59 8.58C30.59 8.43 30.51 8.22 30.45 7.97C30.45 7.97 30.60 7.53 31.58 7.53C32.44 7.53 32.52 7.98 32.52 8.53L32.52 9.37C30.94 9.37 29.71 10.36 29.71 11.51ZM30.69 11.10C30.69 10.49 31.36 9.74 32.52 9.74L32.52 11.05C32.52 11.35 32.35 11.82 31.53 11.82C30.91 11.82 30.69 11.48 30.69 11.10ZM34.89 11.97L34.90 12.42L37.63 12.42L37.66 11.97L37.48 11.97C36.64 11.97 36.64 11.93 36.64 11.49L36.64 8.12C36.64 8.12 37.48 7.67 38.15 7.67C38.78 7.67 39.06 7.94 39.06 8.74L39.06 11.55C39.06 11.94 38.98 11.97 38.58 11.97L38.26 11.97L38.28 12.42L40.88 12.42L40.89 11.97C40.24 11.97 40.04 11.97 40.04 11.55L40.04 9.14C40.04 8.04 40.03 6.89 38.71 6.89C37.59 6.89 36.82 7.69 36.60 7.78C36.60 7.27 36.61 7.13 36.64 6.79L34.92 7.14L34.92 7.57C35.29 7.49 35.34 7.46 35.45 7.46C35.64 7.46 35.66 7.59 35.66 8.16L35.66 11.49C35.66 11.94 35.66 11.97 35.03 11.97ZM41.33 9.83C41.33 11.48 42.46 12.59 43.82 12.59C45.14 12.59 45.89 11.55 45.91 11.54C45.92 11.58 45.92 11.65 45.92 11.76C45.92 11.97 45.91 12.29 45.91 12.78C47.10 12.42 47.47 12.29 47.92 12.17L47.92 11.79C47.45 11.91 47.18 12.04 47.04 12.04C46.87 12.04 46.86 11.89 46.86 11.44L46.86 2.18C45.58 2.52 45.42 2.56 44.73 2.69L44.76 3.12C45.32 3.00 45.58 2.94 45.68 2.94C45.82 2.94 45.88 3.04 45.88 3.33L45.88 7.50C45.88 7.50 45.14 6.89 44.07 6.89C42.73 6.89 41.33 8.15 41.33 9.83ZM42.35 9.34C42.35 8.16 43.12 7.32 44.07 7.32C45.22 7.32 45.88 8.22 45.88 8.22L45.88 11.23C45.88 11.23 45.39 11.79 44.55 11.79C43.18 11.79 42.35 10.61 42.35 9.34ZM48.40 11.97L48.41 12.42L51.14 12.42L51.17 11.97L50.99 11.97C50.15 11.97 50.15 11.93 50.15 11.49L50.15 8.12C50.15 8.12 50.99 7.67 51.66 7.67C52.29 7.67 52.57 7.94 52.57 8.74L52.57 11.55C52.57 11.94 52.49 11.97 52.09 11.97L51.77 11.97L51.79 12.42L54.39 12.42L54.40 11.97C53.75 11.97 53.55 11.97 53.55 11.55L53.55 9.14C53.55 8.04 53.54 6.89 52.22 6.89C51.10 6.89 50.33 7.69 50.11 7.78C50.11 7.27 50.12 7.13 50.15 6.79L48.43 7.14L48.43 7.57C48.80 7.49 48.85 7.46 48.96 7.46C49.15 7.46 49.17 7.59 49.17 8.16L49.17 11.49C49.17 11.94 49.17 11.97 48.54 11.97ZM55.02 11.51C55.02 12.26 55.72 12.57 56.31 12.57C56.92 12.57 57.58 12.17 57.95 11.68C58.24 12.04 58.39 12.31 58.88 12.66C58.93 12.64 59.40 12.36 59.72 12.15C59.82 12.10 59.85 12.04 59.85 12.00C59.85 11.96 59.82 11.91 59.72 11.89C58.91 11.66 58.81 11.21 58.81 10.61L58.81 7.99C58.81 6.97 57.90 6.87 57.58 6.87C55.57 6.87 55.13 8.13 55.13 8.44C55.13 8.61 55.17 8.95 55.45 8.95C55.57 8.95 55.90 8.81 55.90 8.58C55.90 8.43 55.82 8.22 55.76 7.97C55.76 7.97 55.92 7.53 56.90 7.53C57.75 7.53 57.83 7.98 57.83 8.53L57.83 9.37C56.25 9.37 55.02 10.36 55.02 11.51ZM56.00 11.10C56.00 10.49 56.67 9.74 57.83 9.74L57.83 11.05C57.83 11.35 57.67 11.82 56.84 11.82C56.22 11.82 56.00 11.48 56.00 11.10ZM60.20 7.60C60.58 7.53 60.82 7.46 60.96 7.46C61.18 7.46 61.18 7.63 61.18 8.20L61.18 11.66C61.18 11.94 61.07 11.97 60.62 11.97L60.23 11.97L60.24 12.42L62.97 12.42L62.97 11.97L62.90 11.97C62.17 11.97 62.16 11.94 62.16 11.66L62.16 8.12C62.16 8.12 62.79 7.67 63.46 7.67C64.09 7.67 64.34 8.04 64.34 8.74L64.34 11.75C64.34 11.96 64.19 11.97 63.64 11.97L63.48 11.97L63.49 12.42L66.15 12.42L66.15 11.97L66.02 11.97C65.38 11.97 65.32 11.96 65.32 11.73L65.32 9.14C65.32 8.57 65.27 8.13 65.27 8.13C65.27 8.13 65.80 7.67 66.65 7.67C67.23 7.67 67.51 7.85 67.51 8.74L67.51 11.63C67.51 11.97 67.41 11.97 66.68 11.97L66.68 12.42L69.40 12.42L69.40 11.97L69.26 11.97C68.56 11.97 68.49 11.96 68.49 11.62L68.49 8.74C68.49 7.97 68.40 6.89 67.14 6.89C66.42 6.89 65.65 7.45 65.20 7.78C65.17 7.69 64.95 6.89 64.11 6.89C63.18 6.89 62.36 7.67 62.13 7.80C62.13 7.25 62.16 6.78 62.16 6.78C62.16 6.78 60.80 7.08 60.20 7.17ZM69.83 9.86C69.83 10.93 70.42 12.60 72.39 12.60C73.91 12.60 74.94 11.42 74.94 11.16C74.94 11.03 74.89 10.99 74.82 10.99C74.58 10.99 74.06 11.65 72.95 11.65C71.78 11.65 70.88 10.86 70.88 9.45C70.88 9.38 70.90 9.30 70.90 9.25L74.41 8.83C74.47 8.83 74.63 8.78 74.63 8.62C74.63 8.13 73.84 6.83 72.31 6.83C70.92 6.83 69.83 8.04 69.83 9.86ZM70.92 8.76C71.08 7.84 71.61 7.31 72.17 7.31C72.94 7.31 73.33 8.46 73.33 8.46ZM76.71 4.10C76.71 4.27 77.04 4.73 77.29 4.73C77.45 4.73 77.90 4.31 77.90 4.12C77.90 3.89 77.45 3.51 77.29 3.51C77.11 3.51 76.71 3.88 76.71 4.10ZM75.66 7.15L75.67 7.57C76.10 7.49 76.37 7.46 76.44 7.46C76.59 7.46 76.65 7.55 76.65 7.91L76.65 11.65C76.65 11.94 76.54 11.97 75.84 11.97L75.71 11.97L75.71 12.42L78.75 12.42L78.75 11.97L78.50 11.97C77.67 11.97 77.63 11.93 77.63 11.59L77.63 6.73C76.86 6.94 76.27 7.06 75.66 7.15ZM79.32 9.87C79.32 11.17 79.86 12.60 81.96 12.60C83.12 12.60 84.28 11.84 84.28 11.55C84.28 11.49 84.25 11.42 84.17 11.42C83.96 11.42 83.64 11.76 82.36 11.76C81.51 11.76 80.32 11.24 80.32 9.53C80.32 8.76 80.58 7.36 81.65 7.36C82.26 7.36 82.74 8.15 83.19 8.15C83.30 8.15 84.04 8.02 84.04 7.73C84.04 7.52 83.22 6.80 81.90 6.80C80.21 6.80 79.32 8.36 79.32 9.87ZM85.01 11.51C85.01 12.26 85.71 12.57 86.30 12.57C86.91 12.57 87.57 12.17 87.93 11.68C88.23 12.04 88.38 12.31 88.87 12.66C88.91 12.64 89.39 12.36 89.71 12.15C89.81 12.10 89.84 12.04 89.84 12.00C89.84 11.96 89.81 11.91 89.71 11.89C88.90 11.66 88.80 11.21 88.80 10.61L88.80 7.99C88.80 6.97 87.89 6.87 87.57 6.87C85.55 6.87 85.12 8.13 85.12 8.44C85.12 8.61 85.16 8.95 85.44 8.95C85.55 8.95 85.89 8.81 85.89 8.58C85.89 8.43 85.81 8.22 85.75 7.97C85.75 7.97 85.90 7.53 86.88 7.53C87.74 7.53 87.82 7.98 87.82 8.53L87.82 9.37C86.24 9.37 85.01 10.36 85.01 11.51ZM85.99 11.10C85.99 10.49 86.66 9.74 87.82 9.74L87.82 11.05C87.82 11.35 87.65 11.82 86.83 11.82C86.21 11.82 85.99 11.48 85.99 11.10ZM90.19 2.58L90.22 3.05C90.48 3.00 90.97 2.91 91.01 2.91C91.24 2.91 91.27 3.02 91.27 3.61L91.27 11.59C91.27 11.94 91.10 11.97 90.64 11.97L90.33 11.97L90.33 12.42L93.38 12.42L93.38 11.97L93.14 11.97C92.40 11.97 92.25 11.94 92.25 11.59L92.25 2.25C91.56 2.38 90.90 2.48 90.19 2.58ZM93.86 2.58L93.88 3.05C94.15 3.00 94.64 2.91 94.68 2.91C94.91 2.91 94.93 3.02 94.93 3.61L94.93 11.59C94.93 11.94 94.77 11.97 94.30 11.97L94.00 11.97L94.00 12.42L97.05 12.42L97.05 11.97L96.81 11.97C96.07 11.97 95.91 11.94 95.91 11.59L95.91 2.25C95.23 2.38 94.57 2.48 93.86 2.58ZM98.71 4.10C98.71 4.27 99.05 4.73 99.30 4.73C99.46 4.73 99.90 4.31 99.90 4.12C99.90 3.89 99.46 3.51 99.30 3.51C99.12 3.51 98.71 3.88 98.71 4.10ZM97.66 7.15L97.68 7.57C98.11 7.49 98.38 7.46 98.45 7.46C98.60 7.46 98.66 7.55 98.66 7.91L98.66 11.65C98.66 11.94 98.55 11.97 97.85 11.97L97.72 11.97L97.72 12.42L100.76 12.42L100.76 11.97L100.51 11.97C99.68 11.97 99.64 11.93 99.64 11.59L99.64 6.73C98.87 6.94 98.28 7.06 97.66 7.15ZM101.09 7.59C101.09 7.67 101.14 7.70 101.26 7.70L101.93 7.70L101.93 11.07C101.93 11.90 102.31 12.57 103.31 12.57C104.03 12.57 104.97 12.04 104.97 11.66C104.97 11.62 104.96 11.52 104.87 11.52C104.80 11.52 104.41 11.79 103.85 11.79C103.40 11.79 102.91 11.61 102.91 10.96L102.91 7.70L104.72 7.70L104.80 7.03L102.91 7.03L102.91 5.64C102.91 5.59 102.89 5.54 102.83 5.54C102.75 5.54 102.30 6.19 101.89 6.65C101.57 7.01 101.09 7.49 101.09 7.59Z"></path></g><!----><g data-v-d3f97b9e="" id="17ed43dc-8ae5-45dd-94df-dd2d5ed8ca92" transform="matrix(3.21222097416522,0,0,3.21222097416522,-0.7591019305517719,-1.7719889981965977)" stroke="none" fill="#FF0000"><g xmlns="http://www.w3.org/2000/svg" xmlns:xlink="http://www.w3.org/1999/xlink"><path d="M6 7.633c2.247.684 4.07.878 4.229.412.175-.51-1.707-1.618-4.229-2.504v-1.24a.5.5 0 0 0-1 0v.912C2.753 4.529.931 4.335.77 4.801.594 5.312 2.478 6.419 5 7.305v3.459l1 .193V7.633zM5 26.033l-2.777 1.852a.5.5 0 1 0 .554.832L5.5 26.902l2.723 1.815a.5.5 0 1 0 .554-.832L6 26.033v-4.894l-1-.192v5.086zM6 11.975l-1-.192-3.063-.591-.189.981.981.189-1.137 5.892-.982-.189-.189.98L5 19.929l1 .192 1.001.193L7 20.3c0-3.203 1.897-5.965 4.622-7.242L6 11.975zM25 26.033v-5.086l-1 .192v4.894l-2.777 1.852a.5.5 0 0 0 .554.832l2.723-1.815 2.723 1.815a.5.5 0 1 0 .554-.832L25 26.033zM25 5.305c2.522-.886 4.405-1.993 4.229-2.504-.159-.466-1.982-.271-4.229.412V1.301a.5.5 0 0 0-1 0v2.24c-2.521.886-4.404 1.994-4.229 2.504.16.466 1.982.271 4.229-.412v5.324l1-.193V5.305zM29.577 19.045l-.189-.98-.981.189-1.137-5.892.982-.189-.188-.981-3.064.59-1 .192-5.622 1.084C21.104 14.335 23 17.097 23 20.3l-.001.014L24 20.121l1-.192 4.577-.884z"></path><path d="M21.883 21.549a6.85 6.85 0 0 0 .106-1.039c.003-.07.011-.139.011-.209a6.994 6.994 0 0 0-5.729-6.879A6.995 6.995 0 0 0 15 13.301c-.435 0-.858.045-1.271.121-.37.067-.727.166-1.075.29a6.867 6.867 0 0 0-1.115.51A6.993 6.993 0 0 0 8 20.301c0 .07.009.139.011.209a6.996 6.996 0 0 0 3.175 5.656l-.323.969-.336 1.008a.5.5 0 1 0 .948.316l.283-.852.318-.953A6.958 6.958 0 0 0 15 27.3a6.96 6.96 0 0 0 2.925-.646l.317.953.284.852a.5.5 0 1 0 .948-.316l-.336-1.008-.323-.969a7.002 7.002 0 0 0 3.068-4.617zm-4.278 4.148A5.947 5.947 0 0 1 15 26.3a5.969 5.969 0 0 1-2.606-.603 6.005 6.005 0 0 1-3.374-4.994c-.009-.134-.021-.267-.021-.403 0-1.898.89-3.591 2.271-4.691a5.992 5.992 0 0 1 2.252-1.117c.475-.12.967-.191 1.478-.191a5.99 5.99 0 0 1 1.477.191 5.985 5.985 0 0 1 2.252 1.117A5.989 5.989 0 0 1 21 20.3c0 .137-.012.27-.021.403a6.013 6.013 0 0 1-3.374 4.994z"></path></g></g><!----></svg>