<svg data-v-d3f97b9e="" xmlns="http://www.w3.org/2000/svg" viewBox="0 0 62.43701010926171 60"><!----><!----><!----><!----><g data-v-d3f97b9e="" id="97e57ff7-1175-4df3-88e8-c3ba9c6b9f1e" transform="matrix(2.14148064944348,0,0,2.14148064944348,-0.9015631697529187,-1.7153256405340827)" stroke="none" fill="black"><g xmlns="http://www.w3.org/2000/svg" xmlns:xlink="http://www.w3.org/1999/xlink"><path d="M6 7.633c2.247.684 4.07.878 4.229.412.175-.51-1.707-1.618-4.229-2.504v-1.24a.5.5 0 0 0-1 0v.912C2.753 4.529.931 4.335.77 4.801.594 5.312 2.478 6.419 5 7.305v3.459l1 .193V7.633zM5 26.033l-2.777 1.852a.5.5 0 1 0 .554.832L5.5 26.902l2.723 1.815a.5.5 0 1 0 .554-.832L6 26.033v-4.894l-1-.192v5.086zM6 11.975l-1-.192-3.063-.591-.189.981.981.189-1.137 5.892-.982-.189-.189.98L5 19.929l1 .192 1.001.193L7 20.3c0-3.203 1.897-5.965 4.622-7.242L6 11.975zM25 26.033v-5.086l-1 .192v4.894l-2.777 1.852a.5.5 0 0 0 .554.832l2.723-1.815 2.723 1.815a.5.5 0 1 0 .554-.832L25 26.033zM25 5.305c2.522-.886 4.405-1.993 4.229-2.504-.159-.466-1.982-.271-4.229.412V1.301a.5.5 0 0 0-1 0v2.24c-2.521.886-4.404 1.994-4.229 2.504.16.466 1.982.271 4.229-.412v5.324l1-.193V5.305zM29.577 19.045l-.189-.98-.981.189-1.137-5.892.982-.189-.188-.981-3.064.59-1 .192-5.622 1.084C21.104 14.335 23 17.097 23 20.3l-.001.014L24 20.121l1-.192 4.577-.884z"></path><path d="M21.883 21.549a6.85 6.85 0 0 0 .106-1.039c.003-.07.011-.139.011-.209a6.994 6.994 0 0 0-5.729-6.879A6.995 6.995 0 0 0 15 13.301c-.435 0-.858.045-1.271.121-.37.067-.727.166-1.075.29a6.867 6.867 0 0 0-1.115.51A6.993 6.993 0 0 0 8 20.301c0 .07.009.139.011.209a6.996 6.996 0 0 0 3.175 5.656l-.323.969-.336 1.008a.5.5 0 1 0 .948.316l.283-.852.318-.953A6.958 6.958 0 0 0 15 27.3a6.96 6.96 0 0 0 2.925-.646l.317.953.284.852a.5.5 0 1 0 .948-.316l-.336-1.008-.323-.969a7.002 7.002 0 0 0 3.068-4.617zm-4.278 4.148A5.947 5.947 0 0 1 15 26.3a5.969 5.969 0 0 1-2.606-.603 6.005 6.005 0 0 1-3.374-4.994c-.009-.134-.021-.267-.021-.403 0-1.898.89-3.591 2.271-4.691a5.992 5.992 0 0 1 2.252-1.117c.475-.12.967-.191 1.478-.191a5.99 5.99 0 0 1 1.477.191 5.985 5.985 0 0 1 2.252 1.117A5.989 5.989 0 0 1 21 20.3c0 .137-.012.27-.021.403a6.013 6.013 0 0 1-3.374 4.994z"></path></g></g><!----></svg>