<?xml version="1.0" standalone="no"?>
<!DOCTYPE svg PUBLIC "-//W3C//DTD SVG 20010904//EN"
 "http://www.w3.org/TR/2001/REC-SVG-20010904/DTD/svg10.dtd">
<svg version="1.0" xmlns="http://www.w3.org/2000/svg"
 width="1000.000000pt" height="1000.000000pt" viewBox="0 0 1000.000000 1000.000000"
 preserveAspectRatio="xMidYMid meet">
<metadata>
Created by potrace 1.11, written by Peter Selinger 2001-2013
</metadata>
<g transform="translate(0.000000,1000.000000) scale(0.100000,-0.100000)"
fill="#000000" stroke="none">
<path d="M7355 8517 c-34 -11 -62 -33 -78 -62 -8 -13 -12 -118 -12 -320 l-1
-300 -65 -23 c-438 -162 -783 -339 -924 -476 -131 -126 -88 -193 125 -194 82
0 241 16 320 32 14 3 60 12 103 20 119 24 373 90 431 112 8 3 11 -174 10 -666
0 -368 3 -670 7 -670 4 0 36 6 71 14 35 8 77 17 93 19 17 3 41 8 55 11 l25 7
0 680 c0 457 3 683 10 689 6 5 54 25 108 44 355 128 753 334 872 451 159 156
61 223 -280 190 -38 -3 -90 -10 -115 -15 -25 -5 -58 -11 -75 -14 -76 -12 -267
-57 -390 -91 -49 -14 -99 -27 -110 -30 -20 -6 -20 -1 -20 254 0 247 -2 262
-21 288 -35 47 -89 67 -139 50z"/>
<path d="M2555 7754 c-61 -30 -69 -54 -69 -201 -1 -82 -5 -133 -11 -133 -6 0
-57 14 -115 30 -120 35 -391 96 -465 106 -27 3 -59 8 -70 11 -11 3 -85 6 -165
9 -127 3 -150 1 -187 -15 -144 -66 19 -228 431 -430 166 -82 423 -191 521
-221 22 -7 44 -17 50 -22 6 -6 10 -167 11 -436 1 -235 2 -430 3 -433 0 -3 7
-6 14 -6 6 0 61 -10 120 -22 59 -11 109 -21 111 -21 1 0 2 187 2 415 -1 272 2
415 9 415 6 0 26 -5 45 -11 141 -42 437 -113 526 -124 27 -4 60 -9 74 -11 27
-4 169 -16 210 -17 86 -3 180 26 199 61 26 49 -68 153 -238 258 -171 107 -583
297 -766 354 -22 7 -44 16 -49 21 -5 4 -9 86 -10 181 -2 193 -7 212 -71 242
-41 20 -71 20 -110 0z"/>
<path d="M1696 5818 c-10 -51 -20 -107 -22 -125 -6 -34 -14 -30 91 -49 22 -4
42 -8 45 -9 3 -1 26 -5 53 -9 53 -9 53 -8 33 -103 -8 -38 -17 -82 -20 -98 -3
-17 -10 -55 -16 -85 -6 -30 -12 -66 -15 -80 -3 -14 -8 -41 -11 -60 -4 -19 -9
-44 -11 -55 -2 -11 -6 -31 -9 -45 -2 -14 -20 -104 -39 -200 -18 -96 -52 -272
-75 -390 -22 -118 -45 -235 -50 -260 -5 -25 -12 -61 -15 -80 -4 -19 -7 -35 -8
-36 -1 0 -56 10 -121 23 -66 13 -121 22 -123 20 -3 -4 -20 -87 -29 -142 -3
-16 -9 -45 -14 -63 -6 -23 -5 -34 3 -37 11 -4 252 -52 307 -61 14 -3 68 -13
120 -24 52 -10 214 -42 360 -69 269 -52 295 -57 340 -66 14 -2 36 -7 50 -9 14
-3 84 -16 155 -30 262 -51 306 -58 309 -55 2 2 6 54 10 114 11 190 44 364 105
538 31 90 40 112 89 217 174 370 518 726 874 906 71 36 91 54 60 54 -11 0 -64
9 -118 19 -178 35 -308 60 -344 66 -19 3 -89 17 -155 30 -66 13 -181 35 -255
50 -74 14 -144 27 -155 29 -132 26 -446 86 -465 90 -14 2 -74 14 -135 26 -60
12 -121 24 -135 26 -14 2 -59 11 -100 19 -41 8 -86 16 -100 19 -26 4 -177 34
-342 67 -53 10 -98 19 -100 19 -3 0 -12 -42 -22 -92z"/>
<path d="M8230 5900 c-19 -5 -55 -12 -79 -15 -25 -3 -47 -8 -50 -10 -3 -1 -22
-6 -41 -9 -19 -3 -46 -8 -60 -11 -14 -2 -97 -18 -185 -35 -88 -17 -203 -39
-255 -50 -52 -10 -144 -28 -205 -40 -60 -11 -121 -22 -135 -25 -14 -3 -41 -8
-60 -11 -19 -3 -51 -9 -70 -14 -19 -5 -51 -11 -70 -14 -19 -3 -92 -17 -162
-30 -69 -14 -137 -27 -150 -30 -24 -4 -259 -49 -613 -117 -115 -23 -217 -43
-225 -45 -8 -3 25 -26 78 -54 417 -220 763 -611 929 -1050 36 -94 71 -206 78
-247 3 -19 7 -39 10 -43 3 -4 7 -25 10 -46 4 -22 8 -46 10 -54 2 -8 7 -42 10
-75 4 -33 8 -73 10 -90 2 -16 4 -61 4 -98 l1 -69 38 6 c33 5 136 24 532 101
134 26 576 111 880 170 102 19 190 37 196 39 8 3 7 22 -2 68 -7 34 -16 78 -19
97 -12 77 -16 82 -44 77 -14 -3 -44 -9 -66 -12 -22 -3 -42 -7 -45 -9 -3 -2
-25 -6 -50 -10 -25 -4 -47 -8 -51 -11 -4 -2 -9 11 -12 29 -8 44 -65 336 -72
367 -3 14 -8 39 -10 55 -16 86 -86 452 -90 465 -2 8 -7 33 -11 55 -3 22 -9 58
-14 80 -5 22 -12 56 -15 75 -3 19 -19 102 -36 184 -16 82 -29 155 -29 161 0 6
51 21 120 34 130 25 128 24 111 91 -5 19 -15 68 -21 108 -7 42 -17 72 -23 71
-7 -1 -28 -5 -47 -9z"/>
<path d="M4859 5376 c-2 -2 -33 -7 -69 -10 -565 -59 -1108 -442 -1365 -965
-59 -120 -73 -156 -108 -272 -53 -172 -71 -298 -72 -484 0 -198 12 -307 50
-455 100 -391 322 -727 643 -973 42 -32 82 -62 89 -66 10 -5 -6 -65 -72 -262
-46 -139 -85 -269 -85 -287 0 -115 155 -170 221 -79 9 12 51 129 95 260 64
193 81 236 94 231 116 -51 302 -109 410 -128 160 -28 458 -29 605 -2 116 21
298 74 381 111 31 14 58 24 59 23 1 -2 14 -39 29 -83 15 -44 34 -100 42 -125
8 -25 27 -81 40 -125 14 -44 30 -88 35 -97 5 -10 9 -24 9 -31 0 -7 13 -26 29
-41 81 -78 211 -25 211 86 0 18 -38 147 -85 287 -47 140 -84 255 -82 256 110
63 338 274 423 391 10 14 24 31 29 38 31 34 113 169 160 264 86 173 140 350
171 552 16 107 12 374 -7 490 -26 165 -26 162 -74 305 -168 497 -553 896
-1040 1078 -81 30 -225 73 -275 81 -19 3 -60 10 -90 16 -51 11 -392 24 -401
16z m341 -261 c365 -54 707 -239 938 -508 193 -225 322 -511 359 -795 17 -128
7 -344 -22 -502 -8 -42 -39 -149 -57 -199 -184 -503 -599 -860 -1132 -973
-108 -22 -375 -31 -486 -15 -274 39 -558 165 -765 340 -279 235 -454 542 -521
910 -19 99 -24 351 -11 447 89 619 546 1122 1150 1265 56 13 131 27 167 31 36
3 67 8 69 10 6 5 263 -4 311 -11z"/>
<path d="M2487 3446 c-2 -6 -3 -294 -3 -640 l1 -629 -345 -229 c-190 -126
-360 -245 -377 -263 -26 -28 -33 -43 -33 -76 0 -73 54 -129 126 -129 36 0 57
13 434 264 l321 214 342 -227 c188 -125 352 -233 364 -239 31 -17 80 -15 115
6 34 19 68 84 62 116 -12 64 -25 75 -381 312 -194 130 -359 242 -366 248 -9
10 -12 160 -11 624 0 431 -3 612 -10 613 -15 1 -45 6 -147 28 -61 12 -89 15
-92 7z"/>
<path d="M7384 3432 l-120 -24 1 -602 c0 -330 -1 -608 -3 -617 -2 -9 -163
-121 -357 -250 -320 -211 -356 -238 -376 -277 -15 -30 -19 -52 -15 -76 7 -38
59 -95 90 -98 11 0 28 -2 36 -3 30 -3 64 17 404 244 l346 230 342 -228 c389
-259 376 -251 417 -251 96 0 155 115 99 194 -12 19 -165 126 -377 267 l-356
236 0 627 c0 344 -2 632 -5 639 -4 10 -33 7 -126 -11z"/>
</g>
</svg>
